<?xml version="1.0" encoding="UTF-8" standalone="no"?>
<!DOCTYPE svg PUBLIC "-//W3C//DTD SVG 1.1//EN"
 "http://www.w3.org/Graphics/SVG/1.1/DTD/svg11.dtd">
<!-- Generated by graphviz version 2.38.0 (20140413.2041)
 -->
<!-- Title: SerialMessage::SerialMessage Pages: 1 -->
<svg width="313pt" height="104pt"
 viewBox="0.00 0.00 313.00 104.00" xmlns="http://www.w3.org/2000/svg" xmlns:xlink="http://www.w3.org/1999/xlink">
<g id="graph0" class="graph" transform="scale(1 1) rotate(0) translate(4 100)">
<title>SerialMessage::SerialMessage</title>
<polygon fill="white" stroke="none" points="-4,4 -4,-100 309,-100 309,4 -4,4"/>
<!-- Node1 -->
<g id="node1" class="node"><title>Node1</title>
<polygon fill="#bfbfbf" stroke="black" points="0,-38.5 0,-57.5 162,-57.5 162,-38.5 0,-38.5"/>
<text text-anchor="middle" x="81" y="-45.5" font-family="Helvetica,sans-Serif" font-size="10.00">SerialMessage::SerialMessage</text>
</g>
<!-- Node2 -->
<g id="node2" class="node"><title>Node2</title>
<g id="a_node2"><a doxygen="/home/travis/build/lev875/InterfaceEmulator/qtcore.tags:http://qt-project.org/doc/qt-5/" xlink:href="http://qt-project.org/doc/qt-5/qbytearray.html#data" target="_top" xlink:title="QByteArray::data">
<polygon fill="white" stroke="black" points="202.5,-76.5 202.5,-95.5 300.5,-95.5 300.5,-76.5 202.5,-76.5"/>
<text text-anchor="middle" x="251.5" y="-83.5" font-family="Helvetica,sans-Serif" font-size="10.00">QByteArray::data</text>
</a>
</g>
</g>
<!-- Node1&#45;&gt;Node2 -->
<g id="edge1" class="edge"><title>Node1&#45;&gt;Node2</title>
<path fill="none" stroke="midnightblue" d="M124.52,-57.589C146.955,-62.6487 174.673,-68.8996 198.393,-74.2488"/>
<polygon fill="midnightblue" stroke="midnightblue" points="197.761,-77.6942 208.286,-76.4799 199.301,-70.8657 197.761,-77.6942"/>
</g>
<!-- Node3 -->
<g id="node3" class="node"><title>Node3</title>
<g id="a_node3"><a doxygen="/home/travis/build/lev875/InterfaceEmulator/qtcore.tags:http://qt-project.org/doc/qt-5/" xlink:href="http://qt-project.org/doc/qt-5/qbytearray.html#length" target="_top" xlink:title="QByteArray::length">
<polygon fill="white" stroke="black" points="198,-38.5 198,-57.5 305,-57.5 305,-38.5 198,-38.5"/>
<text text-anchor="middle" x="251.5" y="-45.5" font-family="Helvetica,sans-Serif" font-size="10.00">QByteArray::length</text>
</a>
</g>
</g>
<!-- Node1&#45;&gt;Node3 -->
<g id="edge2" class="edge"><title>Node1&#45;&gt;Node3</title>
<path fill="none" stroke="midnightblue" d="M162.302,-48C170.765,-48 179.282,-48 187.509,-48"/>
<polygon fill="midnightblue" stroke="midnightblue" points="187.749,-51.5001 197.749,-48 187.749,-44.5001 187.749,-51.5001"/>
</g>
<!-- Node4 -->
<g id="node4" class="node"><title>Node4</title>
<g id="a_node4"><a xlink:href="serialmessagemc_8c.html#a80c950bfca842f0283f06e834d6720c6" target="_top" xlink:title="Функция расчета CRC16. ">
<polygon fill="white" stroke="black" points="229.5,-0.5 229.5,-19.5 273.5,-19.5 273.5,-0.5 229.5,-0.5"/>
<text text-anchor="middle" x="251.5" y="-7.5" font-family="Helvetica,sans-Serif" font-size="10.00">Crc16</text>
</a>
</g>
</g>
<!-- Node1&#45;&gt;Node4 -->
<g id="edge3" class="edge"><title>Node1&#45;&gt;Node4</title>
<path fill="none" stroke="midnightblue" d="M124.52,-38.411C153.955,-31.7727 192.483,-23.084 219.144,-17.0715"/>
<polygon fill="midnightblue" stroke="midnightblue" points="220.1,-20.4439 229.085,-14.8296 218.56,-13.6154 220.1,-20.4439"/>
</g>
</g>
</svg>
