<?xml version="1.0" encoding="UTF-8" standalone="no"?>
<!DOCTYPE svg PUBLIC "-//W3C//DTD SVG 1.1//EN"
 "http://www.w3.org/Graphics/SVG/1.1/DTD/svg11.dtd">
<!-- Generated by graphviz version 2.38.0 (20140413.2041)
 -->
<!-- Title: SerialMessage::SerialMessage Pages: 1 -->
<svg width="313pt" height="142pt"
 viewBox="0.00 0.00 313.00 142.00" xmlns="http://www.w3.org/2000/svg" xmlns:xlink="http://www.w3.org/1999/xlink">
<g id="graph0" class="graph" transform="scale(1 1) rotate(0) translate(4 138)">
<title>SerialMessage::SerialMessage</title>
<polygon fill="white" stroke="none" points="-4,4 -4,-138 309,-138 309,4 -4,4"/>
<!-- Node1 -->
<g id="node1" class="node"><title>Node1</title>
<polygon fill="#bfbfbf" stroke="black" points="0,-57.5 0,-76.5 162,-76.5 162,-57.5 0,-57.5"/>
<text text-anchor="middle" x="81" y="-64.5" font-family="Helvetica,sans-Serif" font-size="10.00">SerialMessage::SerialMessage</text>
</g>
<!-- Node2 -->
<g id="node2" class="node"><title>Node2</title>
<g id="a_node2"><a doxygen="/home/travis/build/lev875/InterfaceEmulator/qtcore.tags:http://qt-project.org/doc/qt-5/" xlink:href="http://qt-project.org/doc/qt-5/qstring.html#toLatin1" target="_top" xlink:title="QString::toLatin1">
<polygon fill="white" stroke="black" points="202.5,-114.5 202.5,-133.5 300.5,-133.5 300.5,-114.5 202.5,-114.5"/>
<text text-anchor="middle" x="251.5" y="-121.5" font-family="Helvetica,sans-Serif" font-size="10.00">QString::toLatin1</text>
</a>
</g>
</g>
<!-- Node1&#45;&gt;Node2 -->
<g id="edge1" class="edge"><title>Node1&#45;&gt;Node2</title>
<path fill="none" stroke="midnightblue" d="M110.203,-76.5405C138.27,-86.0349 181.524,-100.667 212.584,-111.174"/>
<polygon fill="midnightblue" stroke="midnightblue" points="211.611,-114.539 222.205,-114.428 213.854,-107.908 211.611,-114.539"/>
</g>
<!-- Node3 -->
<g id="node3" class="node"><title>Node3</title>
<g id="a_node3"><a doxygen="/home/travis/build/lev875/InterfaceEmulator/qtcore.tags:http://qt-project.org/doc/qt-5/" xlink:href="http://qt-project.org/doc/qt-5/qbytearray.html#data" target="_top" xlink:title="QByteArray::data">
<polygon fill="white" stroke="black" points="202.5,-76.5 202.5,-95.5 300.5,-95.5 300.5,-76.5 202.5,-76.5"/>
<text text-anchor="middle" x="251.5" y="-83.5" font-family="Helvetica,sans-Serif" font-size="10.00">QByteArray::data</text>
</a>
</g>
</g>
<!-- Node1&#45;&gt;Node3 -->
<g id="edge2" class="edge"><title>Node1&#45;&gt;Node3</title>
<path fill="none" stroke="midnightblue" d="M162.302,-76.0548C172.494,-77.204 182.762,-78.3619 192.51,-79.4611"/>
<polygon fill="midnightblue" stroke="midnightblue" points="192.125,-82.9398 202.454,-80.5824 192.909,-75.9838 192.125,-82.9398"/>
</g>
<!-- Node4 -->
<g id="node4" class="node"><title>Node4</title>
<g id="a_node4"><a doxygen="/home/travis/build/lev875/InterfaceEmulator/qtcore.tags:http://qt-project.org/doc/qt-5/" xlink:href="http://qt-project.org/doc/qt-5/qbytearray.html#length" target="_top" xlink:title="QByteArray::length">
<polygon fill="white" stroke="black" points="198,-38.5 198,-57.5 305,-57.5 305,-38.5 198,-38.5"/>
<text text-anchor="middle" x="251.5" y="-45.5" font-family="Helvetica,sans-Serif" font-size="10.00">QByteArray::length</text>
</a>
</g>
</g>
<!-- Node1&#45;&gt;Node4 -->
<g id="edge3" class="edge"><title>Node1&#45;&gt;Node4</title>
<path fill="none" stroke="midnightblue" d="M162.302,-57.9452C170.859,-56.9803 179.471,-56.0092 187.783,-55.072"/>
<polygon fill="midnightblue" stroke="midnightblue" points="188.204,-58.5467 197.749,-53.9482 187.42,-51.5908 188.204,-58.5467"/>
</g>
<!-- Node5 -->
<g id="node5" class="node"><title>Node5</title>
<g id="a_node5"><a xlink:href="serialmessagemc_8c.html#a80c950bfca842f0283f06e834d6720c6" target="_top" xlink:title="Функция расчета CRC16. ">
<polygon fill="white" stroke="black" points="229.5,-0.5 229.5,-19.5 273.5,-19.5 273.5,-0.5 229.5,-0.5"/>
<text text-anchor="middle" x="251.5" y="-7.5" font-family="Helvetica,sans-Serif" font-size="10.00">Crc16</text>
</a>
</g>
</g>
<!-- Node1&#45;&gt;Node5 -->
<g id="edge4" class="edge"><title>Node1&#45;&gt;Node5</title>
<path fill="none" stroke="midnightblue" d="M110.203,-57.4595C140.552,-47.193 188.66,-30.9193 219.905,-20.3497"/>
<polygon fill="midnightblue" stroke="midnightblue" points="221.062,-23.6532 229.413,-17.1333 218.819,-17.0223 221.062,-23.6532"/>
</g>
</g>
</svg>
