<?xml version="1.0" encoding="UTF-8" standalone="no"?>
<!DOCTYPE svg PUBLIC "-//W3C//DTD SVG 1.1//EN"
 "http://www.w3.org/Graphics/SVG/1.1/DTD/svg11.dtd">
<!-- Generated by graphviz version 2.38.0 (20140413.2041)
 -->
<!-- Title: SerialMessage::setData Pages: 1 -->
<svg width="282pt" height="142pt"
 viewBox="0.00 0.00 282.00 142.00" xmlns="http://www.w3.org/2000/svg" xmlns:xlink="http://www.w3.org/1999/xlink">
<g id="graph0" class="graph" transform="scale(1 1) rotate(0) translate(4 138)">
<title>SerialMessage::setData</title>
<polygon fill="white" stroke="none" points="-4,4 -4,-138 278,-138 278,4 -4,4"/>
<!-- Node1 -->
<g id="node1" class="node"><title>Node1</title>
<polygon fill="#bfbfbf" stroke="black" points="0,-57.5 0,-76.5 131,-76.5 131,-57.5 0,-57.5"/>
<text text-anchor="middle" x="65.5" y="-64.5" font-family="Helvetica,sans-Serif" font-size="10.00">SerialMessage::setData</text>
</g>
<!-- Node2 -->
<g id="node2" class="node"><title>Node2</title>
<g id="a_node2"><a doxygen="/home/travis/build/lev875/InterfaceEmulator/qtcore.tags:http://qt-project.org/doc/qt-5/" xlink:href="http://qt-project.org/doc/qt-5/qstring.html#toLatin1" target="_top" xlink:title="QString::toLatin1">
<polygon fill="white" stroke="black" points="171.5,-114.5 171.5,-133.5 269.5,-133.5 269.5,-114.5 171.5,-114.5"/>
<text text-anchor="middle" x="220.5" y="-121.5" font-family="Helvetica,sans-Serif" font-size="10.00">QString::toLatin1</text>
</a>
</g>
</g>
<!-- Node1&#45;&gt;Node2 -->
<g id="edge1" class="edge"><title>Node1&#45;&gt;Node2</title>
<path fill="none" stroke="midnightblue" d="M91.6571,-76.6258C111.963,-84.3678 141.283,-95.4851 167,-105 172.227,-106.934 177.755,-108.958 183.184,-110.933"/>
<polygon fill="midnightblue" stroke="midnightblue" points="182.171,-114.289 192.765,-114.408 184.557,-107.708 182.171,-114.289"/>
</g>
<!-- Node3 -->
<g id="node3" class="node"><title>Node3</title>
<g id="a_node3"><a doxygen="/home/travis/build/lev875/InterfaceEmulator/qtcore.tags:http://qt-project.org/doc/qt-5/" xlink:href="http://qt-project.org/doc/qt-5/qbytearray.html#data" target="_top" xlink:title="QByteArray::data">
<polygon fill="white" stroke="black" points="171.5,-76.5 171.5,-95.5 269.5,-95.5 269.5,-76.5 171.5,-76.5"/>
<text text-anchor="middle" x="220.5" y="-83.5" font-family="Helvetica,sans-Serif" font-size="10.00">QByteArray::data</text>
</a>
</g>
</g>
<!-- Node1&#45;&gt;Node3 -->
<g id="edge2" class="edge"><title>Node1&#45;&gt;Node3</title>
<path fill="none" stroke="midnightblue" d="M131.386,-75.0577C141.299,-76.2888 151.479,-77.553 161.238,-78.7649"/>
<polygon fill="midnightblue" stroke="midnightblue" points="160.873,-82.2463 171.228,-80.0054 161.735,-75.2996 160.873,-82.2463"/>
</g>
<!-- Node4 -->
<g id="node4" class="node"><title>Node4</title>
<g id="a_node4"><a doxygen="/home/travis/build/lev875/InterfaceEmulator/qtcore.tags:http://qt-project.org/doc/qt-5/" xlink:href="http://qt-project.org/doc/qt-5/qbytearray.html#length" target="_top" xlink:title="QByteArray::length">
<polygon fill="white" stroke="black" points="167,-38.5 167,-57.5 274,-57.5 274,-38.5 167,-38.5"/>
<text text-anchor="middle" x="220.5" y="-45.5" font-family="Helvetica,sans-Serif" font-size="10.00">QByteArray::length</text>
</a>
</g>
</g>
<!-- Node1&#45;&gt;Node4 -->
<g id="edge3" class="edge"><title>Node1&#45;&gt;Node4</title>
<path fill="none" stroke="midnightblue" d="M131.386,-58.9423C139.724,-57.9069 148.25,-56.848 156.556,-55.8165"/>
<polygon fill="midnightblue" stroke="midnightblue" points="157.059,-59.2811 166.551,-54.5753 156.196,-52.3344 157.059,-59.2811"/>
</g>
<!-- Node5 -->
<g id="node5" class="node"><title>Node5</title>
<g id="a_node5"><a xlink:href="serialmessagemc_8c.html#a80c950bfca842f0283f06e834d6720c6" target="_top" xlink:title="Функция расчета CRC16. ">
<polygon fill="white" stroke="black" points="198.5,-0.5 198.5,-19.5 242.5,-19.5 242.5,-0.5 198.5,-0.5"/>
<text text-anchor="middle" x="220.5" y="-7.5" font-family="Helvetica,sans-Serif" font-size="10.00">Crc16</text>
</a>
</g>
</g>
<!-- Node1&#45;&gt;Node5 -->
<g id="edge4" class="edge"><title>Node1&#45;&gt;Node5</title>
<path fill="none" stroke="midnightblue" d="M91.6571,-57.3742C111.963,-49.6322 141.283,-38.5149 167,-29 174.062,-26.387 181.673,-23.6102 188.849,-21.0096"/>
<polygon fill="midnightblue" stroke="midnightblue" points="190.057,-24.2946 198.273,-17.6045 187.679,-17.7112 190.057,-24.2946"/>
</g>
</g>
</svg>
