<?xml version="1.0" encoding="UTF-8" standalone="no"?>
<!DOCTYPE svg PUBLIC "-//W3C//DTD SVG 1.1//EN"
 "http://www.w3.org/Graphics/SVG/1.1/DTD/svg11.dtd">
<!-- Generated by graphviz version 2.38.0 (20140413.2041)
 -->
<!-- Title: Protocol/example.cpp Pages: 1 -->
<svg width="562pt" height="196pt"
 viewBox="0.00 0.00 561.50 196.00" xmlns="http://www.w3.org/2000/svg" xmlns:xlink="http://www.w3.org/1999/xlink">
<g id="graph0" class="graph" transform="scale(1 1) rotate(0) translate(4 192)">
<title>Protocol/example.cpp</title>
<polygon fill="white" stroke="none" points="-4,4 -4,-192 557.5,-192 557.5,4 -4,4"/>
<!-- Node1 -->
<g id="node1" class="node"><title>Node1</title>
<polygon fill="#bfbfbf" stroke="black" points="101.5,-168.5 101.5,-187.5 221.5,-187.5 221.5,-168.5 101.5,-168.5"/>
<text text-anchor="middle" x="161.5" y="-175.5" font-family="Helvetica,sans-Serif" font-size="10.00">Protocol/example.cpp</text>
</g>
<!-- Node2 -->
<g id="node2" class="node"><title>Node2</title>
<polygon fill="white" stroke="#bfbfbf" points="0,-112.5 0,-131.5 59,-131.5 59,-112.5 0,-112.5"/>
<text text-anchor="middle" x="29.5" y="-119.5" font-family="Helvetica,sans-Serif" font-size="10.00">iostream</text>
</g>
<!-- Node1&#45;&gt;Node2 -->
<g id="edge1" class="edge"><title>Node1&#45;&gt;Node2</title>
<path fill="none" stroke="midnightblue" d="M140.584,-168.444C118.764,-159.517 84.3502,-145.439 59.6078,-135.317"/>
<polygon fill="midnightblue" stroke="midnightblue" points="60.8987,-132.063 50.3179,-131.516 58.2482,-138.542 60.8987,-132.063"/>
</g>
<!-- Node3 -->
<g id="node3" class="node"><title>Node3</title>
<polygon fill="white" stroke="#bfbfbf" points="77.5,-112.5 77.5,-131.5 133.5,-131.5 133.5,-112.5 77.5,-112.5"/>
<text text-anchor="middle" x="105.5" y="-119.5" font-family="Helvetica,sans-Serif" font-size="10.00">QDebug</text>
</g>
<!-- Node1&#45;&gt;Node3 -->
<g id="edge2" class="edge"><title>Node1&#45;&gt;Node3</title>
<path fill="none" stroke="midnightblue" d="M152.503,-168.324C144.306,-160.42 131.994,-148.548 122.028,-138.938"/>
<polygon fill="midnightblue" stroke="midnightblue" points="124.289,-136.256 114.661,-131.834 119.43,-141.295 124.289,-136.256"/>
</g>
<!-- Node4 -->
<g id="node4" class="node"><title>Node4</title>
<polygon fill="white" stroke="#bfbfbf" points="130,-56.5 130,-75.5 201,-75.5 201,-56.5 130,-56.5"/>
<text text-anchor="middle" x="165.5" y="-63.5" font-family="Helvetica,sans-Serif" font-size="10.00">QByteArray</text>
</g>
<!-- Node1&#45;&gt;Node4 -->
<g id="edge3" class="edge"><title>Node1&#45;&gt;Node4</title>
<path fill="none" stroke="midnightblue" d="M161.814,-168.368C162.459,-150.617 163.948,-109.666 164.824,-85.5974"/>
<polygon fill="midnightblue" stroke="midnightblue" points="168.322,-85.712 165.188,-75.5914 161.326,-85.4576 168.322,-85.712"/>
</g>
<!-- Node5 -->
<g id="node5" class="node"><title>Node5</title>
<polygon fill="white" stroke="#bfbfbf" points="190,-112.5 190,-131.5 321,-131.5 321,-112.5 190,-112.5"/>
<text text-anchor="middle" x="255.5" y="-119.5" font-family="Helvetica,sans-Serif" font-size="10.00">QtSerialPort/QSerialPort</text>
</g>
<!-- Node1&#45;&gt;Node5 -->
<g id="edge4" class="edge"><title>Node1&#45;&gt;Node5</title>
<path fill="none" stroke="midnightblue" d="M176.603,-168.324C191.403,-159.822 214.194,-146.729 231.482,-136.797"/>
<polygon fill="midnightblue" stroke="midnightblue" points="233.507,-139.671 240.435,-131.655 230.02,-133.601 233.507,-139.671"/>
</g>
<!-- Node6 -->
<g id="node6" class="node"><title>Node6</title>
<g id="a_node6"><a xlink:href="serialmessage_8h.html" target="_top" xlink:title="serialmessage.h">
<polygon fill="white" stroke="black" points="339,-112.5 339,-131.5 434,-131.5 434,-112.5 339,-112.5"/>
<text text-anchor="middle" x="386.5" y="-119.5" font-family="Helvetica,sans-Serif" font-size="10.00">serialmessage.h</text>
</a>
</g>
</g>
<!-- Node1&#45;&gt;Node6 -->
<g id="edge5" class="edge"><title>Node1&#45;&gt;Node6</title>
<path fill="none" stroke="midnightblue" d="M197.152,-168.444C236.156,-159.083 298.766,-144.056 341.217,-133.868"/>
<polygon fill="midnightblue" stroke="midnightblue" points="342.108,-137.254 351.015,-131.516 340.474,-130.447 342.108,-137.254"/>
</g>
<!-- Node6&#45;&gt;Node4 -->
<g id="edge8" class="edge"><title>Node6&#45;&gt;Node4</title>
<path fill="none" stroke="midnightblue" d="M351.482,-112.444C313.252,-103.102 251.933,-88.1194 210.243,-77.9326"/>
<polygon fill="midnightblue" stroke="midnightblue" points="210.899,-74.4901 200.354,-75.5164 209.238,-81.2901 210.899,-74.4901"/>
</g>
<!-- Node7 -->
<g id="node7" class="node"><title>Node7</title>
<g id="a_node7"><a xlink:href="serialmessagemc_8h.html" target="_top" xlink:title="serialmessagemc.h">
<polygon fill="white" stroke="black" points="227.5,-56.5 227.5,-75.5 337.5,-75.5 337.5,-56.5 227.5,-56.5"/>
<text text-anchor="middle" x="282.5" y="-63.5" font-family="Helvetica,sans-Serif" font-size="10.00">serialmessagemc.h</text>
</a>
</g>
</g>
<!-- Node6&#45;&gt;Node7 -->
<g id="edge6" class="edge"><title>Node6&#45;&gt;Node7</title>
<path fill="none" stroke="midnightblue" d="M369.791,-112.324C353.188,-103.703 327.498,-90.3643 308.28,-80.3855"/>
<polygon fill="midnightblue" stroke="midnightblue" points="309.656,-77.1565 299.168,-75.6545 306.43,-83.3689 309.656,-77.1565"/>
</g>
<!-- Node9 -->
<g id="node9" class="node"><title>Node9</title>
<polygon fill="white" stroke="#bfbfbf" points="356,-56.5 356,-75.5 409,-75.5 409,-56.5 356,-56.5"/>
<text text-anchor="middle" x="382.5" y="-63.5" font-family="Helvetica,sans-Serif" font-size="10.00">QString</text>
</g>
<!-- Node6&#45;&gt;Node9 -->
<g id="edge9" class="edge"><title>Node6&#45;&gt;Node9</title>
<path fill="none" stroke="midnightblue" d="M385.839,-112.083C385.315,-105.006 384.564,-94.8611 383.906,-85.9865"/>
<polygon fill="midnightblue" stroke="midnightblue" points="387.377,-85.4652 383.148,-75.7511 380.397,-85.9823 387.377,-85.4652"/>
</g>
<!-- Node10 -->
<g id="node10" class="node"><title>Node10</title>
<polygon fill="white" stroke="#bfbfbf" points="427.5,-56.5 427.5,-75.5 471.5,-75.5 471.5,-56.5 427.5,-56.5"/>
<text text-anchor="middle" x="449.5" y="-63.5" font-family="Helvetica,sans-Serif" font-size="10.00">string</text>
</g>
<!-- Node6&#45;&gt;Node10 -->
<g id="edge10" class="edge"><title>Node6&#45;&gt;Node10</title>
<path fill="none" stroke="midnightblue" d="M396.622,-112.324C406.026,-104.263 420.244,-92.0765 431.569,-82.3695"/>
<polygon fill="midnightblue" stroke="midnightblue" points="433.879,-84.9993 439.194,-75.8339 429.323,-79.6844 433.879,-84.9993"/>
</g>
<!-- Node11 -->
<g id="node11" class="node"><title>Node11</title>
<polygon fill="white" stroke="#bfbfbf" points="489.5,-56.5 489.5,-75.5 553.5,-75.5 553.5,-56.5 489.5,-56.5"/>
<text text-anchor="middle" x="521.5" y="-63.5" font-family="Helvetica,sans-Serif" font-size="10.00">stdexcept</text>
</g>
<!-- Node6&#45;&gt;Node11 -->
<g id="edge11" class="edge"><title>Node6&#45;&gt;Node11</title>
<path fill="none" stroke="midnightblue" d="M407.891,-112.444C430.207,-103.517 465.403,-89.4387 490.708,-79.3168"/>
<polygon fill="midnightblue" stroke="midnightblue" points="492.224,-82.4801 500.209,-75.5164 489.624,-75.9807 492.224,-82.4801"/>
</g>
<!-- Node8 -->
<g id="node8" class="node"><title>Node8</title>
<polygon fill="white" stroke="#bfbfbf" points="256,-0.5 256,-19.5 309,-19.5 309,-0.5 256,-0.5"/>
<text text-anchor="middle" x="282.5" y="-7.5" font-family="Helvetica,sans-Serif" font-size="10.00">stdint.h</text>
</g>
<!-- Node7&#45;&gt;Node8 -->
<g id="edge7" class="edge"><title>Node7&#45;&gt;Node8</title>
<path fill="none" stroke="midnightblue" d="M282.5,-56.083C282.5,-49.0059 282.5,-38.8611 282.5,-29.9865"/>
<polygon fill="midnightblue" stroke="midnightblue" points="286,-29.751 282.5,-19.7511 279,-29.7511 286,-29.751"/>
</g>
</g>
</svg>
