<?xml version="1.0" encoding="UTF-8" standalone="no"?>
<!DOCTYPE svg PUBLIC "-//W3C//DTD SVG 1.1//EN"
 "http://www.w3.org/Graphics/SVG/1.1/DTD/svg11.dtd">
<!-- Generated by graphviz version 2.38.0 (20140413.2041)
 -->
<!-- Title: Crc16 Pages: 1 -->
<svg width="327pt" height="129pt"
 viewBox="0.00 0.00 327.00 128.83" xmlns="http://www.w3.org/2000/svg" xmlns:xlink="http://www.w3.org/1999/xlink">
<g id="graph0" class="graph" transform="scale(1 1) rotate(0) translate(4 124.835)">
<title>Crc16</title>
<polygon fill="white" stroke="none" points="-4,4 -4,-124.835 323,-124.835 323,4 -4,4"/>
<!-- Node1 -->
<g id="node1" class="node"><title>Node1</title>
<polygon fill="#bfbfbf" stroke="black" points="0,-57.5 0,-76.5 44,-76.5 44,-57.5 0,-57.5"/>
<text text-anchor="middle" x="22" y="-64.5" font-family="Helvetica,sans-Serif" font-size="10.00">Crc16</text>
</g>
<!-- Node2 -->
<g id="node2" class="node"><title>Node2</title>
<g id="a_node2"><a xlink:href="example_8cpp.html#ae66f6b31b5ad750f1fe042a706a4e3d4" target="_top" xlink:title="Example usage. ">
<polygon fill="white" stroke="black" points="278,-57.5 278,-76.5 319,-76.5 319,-57.5 278,-57.5"/>
<text text-anchor="middle" x="298.5" y="-64.5" font-family="Helvetica,sans-Serif" font-size="10.00">main</text>
</a>
</g>
</g>
<!-- Node1&#45;&gt;Node2 -->
<g id="edge1" class="edge"><title>Node1&#45;&gt;Node2</title>
<path fill="none" stroke="midnightblue" d="M41.3241,-83.2835C51.8479,-91.531 65.7713,-100.692 80,-105 148.911,-125.864 173.22,-126.29 242,-105 259.849,-99.4752 277.066,-86.0126 287.469,-76.6926"/>
<polygon fill="midnightblue" stroke="midnightblue" points="43.2902,-80.3679 33.3516,-76.6971 38.8318,-85.7645 43.2902,-80.3679"/>
</g>
<!-- Node3 -->
<g id="node3" class="node"><title>Node3</title>
<g id="a_node3"><a xlink:href="class_serial_message.html#aef84d2a1b8928bf39c0f4e59bdf7e36f" target="_top" xlink:title="Конструктор по умолчанию. ">
<polygon fill="white" stroke="black" points="80,-76.5 80,-95.5 242,-95.5 242,-76.5 80,-76.5"/>
<text text-anchor="middle" x="161" y="-83.5" font-family="Helvetica,sans-Serif" font-size="10.00">SerialMessage::SerialMessage</text>
</a>
</g>
</g>
<!-- Node1&#45;&gt;Node3 -->
<g id="edge2" class="edge"><title>Node1&#45;&gt;Node3</title>
<path fill="none" stroke="midnightblue" d="M54.1359,-71.3181C65.2677,-72.8619 78.2963,-74.6688 91.333,-76.4768"/>
<polygon fill="midnightblue" stroke="midnightblue" points="54.492,-67.8341 44.106,-69.9271 53.5304,-74.7677 54.492,-67.8341"/>
</g>
<!-- Node4 -->
<g id="node4" class="node"><title>Node4</title>
<g id="a_node4"><a xlink:href="class_serial_message.html#a07ebad5adfaf953ee2f98333c577f603" target="_top" xlink:title="Сеттер для данных. ">
<polygon fill="white" stroke="black" points="95.5,-38.5 95.5,-57.5 226.5,-57.5 226.5,-38.5 95.5,-38.5"/>
<text text-anchor="middle" x="161" y="-45.5" font-family="Helvetica,sans-Serif" font-size="10.00">SerialMessage::setData</text>
</a>
</g>
</g>
<!-- Node1&#45;&gt;Node4 -->
<g id="edge3" class="edge"><title>Node1&#45;&gt;Node4</title>
<path fill="none" stroke="midnightblue" d="M54.2064,-62.6721C66.4402,-60.9754 80.9569,-58.9622 95.2549,-56.9793"/>
<polygon fill="midnightblue" stroke="midnightblue" points="53.5304,-59.2323 44.106,-64.0729 54.492,-66.1659 53.5304,-59.2323"/>
</g>
<!-- Node5 -->
<g id="node5" class="node"><title>Node5</title>
<g id="a_node5"><a xlink:href="serialmessagemc_8h.html#a8824c3575b878c1aa30df964a9423b0a" target="_top" xlink:title="Проверяет соответствие контрольной суммы из пакета расчитанной контрольной сумме ">
<polygon fill="white" stroke="black" points="131,-0.5 131,-19.5 191,-19.5 191,-0.5 131,-0.5"/>
<text text-anchor="middle" x="161" y="-7.5" font-family="Helvetica,sans-Serif" font-size="10.00">checkCrc</text>
</a>
</g>
</g>
<!-- Node1&#45;&gt;Node5 -->
<g id="edge4" class="edge"><title>Node1&#45;&gt;Node5</title>
<path fill="none" stroke="midnightblue" d="M43.0071,-51.104C53.5025,-43.4477 66.8802,-34.7115 80,-29 96.0992,-21.9915 115.196,-17.3316 130.694,-14.3813"/>
<polygon fill="midnightblue" stroke="midnightblue" points="40.8133,-48.3747 34.9379,-57.1912 45.0289,-53.963 40.8133,-48.3747"/>
</g>
<!-- Node5&#45;&gt;Node2 -->
<g id="edge5" class="edge"><title>Node5&#45;&gt;Node2</title>
<path fill="none" stroke="midnightblue" d="M201.18,-16.3056C214.481,-19.2238 229.206,-23.3358 242,-29 258.444,-36.2799 275.188,-48.5525 285.92,-57.1766"/>
<polygon fill="midnightblue" stroke="midnightblue" points="201.839,-12.868 191.342,-14.3008 200.442,-19.727 201.839,-12.868"/>
</g>
</g>
</svg>
