<?xml version="1.0" encoding="UTF-8" standalone="no"?>
<!DOCTYPE svg PUBLIC "-//W3C//DTD SVG 1.1//EN"
 "http://www.w3.org/Graphics/SVG/1.1/DTD/svg11.dtd">
<!-- Generated by graphviz version 2.38.0 (20140413.2041)
 -->
<!-- Title: checkCrc Pages: 1 -->
<svg width="172pt" height="104pt"
 viewBox="0.00 0.00 172.00 104.00" xmlns="http://www.w3.org/2000/svg" xmlns:xlink="http://www.w3.org/1999/xlink">
<g id="graph0" class="graph" transform="scale(1 1) rotate(0) translate(4 100)">
<title>checkCrc</title>
<polygon fill="white" stroke="none" points="-4,4 -4,-100 168,-100 168,4 -4,4"/>
<!-- Node1 -->
<g id="node1" class="node"><title>Node1</title>
<polygon fill="#bfbfbf" stroke="black" points="0,-38.5 0,-57.5 60,-57.5 60,-38.5 0,-38.5"/>
<text text-anchor="middle" x="30" y="-45.5" font-family="Helvetica,sans-Serif" font-size="10.00">checkCrc</text>
</g>
<!-- Node2 -->
<g id="node2" class="node"><title>Node2</title>
<g id="a_node2"><a xlink:href="serialmessagemc_8c.html#a261b6a057932c6300c8d97d4b925e9f2" target="_top" xlink:title="Получает заголовок из пакета ">
<polygon fill="white" stroke="black" points="96,-76.5 96,-95.5 164,-95.5 164,-76.5 96,-76.5"/>
<text text-anchor="middle" x="130" y="-83.5" font-family="Helvetica,sans-Serif" font-size="10.00">getHeader</text>
</a>
</g>
</g>
<!-- Node1&#45;&gt;Node2 -->
<g id="edge1" class="edge"><title>Node1&#45;&gt;Node2</title>
<path fill="none" stroke="midnightblue" d="M55.7295,-57.589C67.568,-62.1794 81.935,-67.7503 94.8,-72.7388"/>
<polygon fill="midnightblue" stroke="midnightblue" points="93.6894,-76.062 104.278,-76.4141 96.2201,-69.5355 93.6894,-76.062"/>
</g>
<!-- Node3 -->
<g id="node3" class="node"><title>Node3</title>
<g id="a_node3"><a xlink:href="serialmessagemc_8c.html#a19d9e049601fe5c060a39d09f2b6c75d" target="_top" xlink:title="Получает указатель на массив данных из пакета ">
<polygon fill="white" stroke="black" points="102,-38.5 102,-57.5 158,-57.5 158,-38.5 102,-38.5"/>
<text text-anchor="middle" x="130" y="-45.5" font-family="Helvetica,sans-Serif" font-size="10.00">getData</text>
</a>
</g>
</g>
<!-- Node1&#45;&gt;Node3 -->
<g id="edge2" class="edge"><title>Node1&#45;&gt;Node3</title>
<path fill="none" stroke="midnightblue" d="M60.1379,-48C70.0398,-48 81.2444,-48 91.6952,-48"/>
<polygon fill="midnightblue" stroke="midnightblue" points="91.8185,-51.5001 101.818,-48 91.8184,-44.5001 91.8185,-51.5001"/>
</g>
<!-- Node4 -->
<g id="node4" class="node"><title>Node4</title>
<g id="a_node4"><a xlink:href="serialmessagemc_8c.html#a80c950bfca842f0283f06e834d6720c6" target="_top" xlink:title="Функция расчета CRC16. ">
<polygon fill="white" stroke="black" points="108,-0.5 108,-19.5 152,-19.5 152,-0.5 108,-0.5"/>
<text text-anchor="middle" x="130" y="-7.5" font-family="Helvetica,sans-Serif" font-size="10.00">Crc16</text>
</a>
</g>
</g>
<!-- Node1&#45;&gt;Node4 -->
<g id="edge3" class="edge"><title>Node1&#45;&gt;Node4</title>
<path fill="none" stroke="midnightblue" d="M55.7295,-38.411C68.6878,-33.3863 84.6758,-27.1869 98.4072,-21.8625"/>
<polygon fill="midnightblue" stroke="midnightblue" points="99.8732,-25.0481 107.931,-18.1695 97.3424,-18.5215 99.8732,-25.0481"/>
</g>
</g>
</svg>
