<?xml version="1.0" encoding="UTF-8" standalone="no"?>
<!DOCTYPE svg PUBLIC "-//W3C//DTD SVG 1.1//EN"
 "http://www.w3.org/Graphics/SVG/1.1/DTD/svg11.dtd">
<!-- Generated by graphviz version 2.38.0 (20140413.2041)
 -->
<!-- Title: Protocol/serialmessage.h Pages: 1 -->
<svg width="423pt" height="140pt"
 viewBox="0.00 0.00 423.00 140.00" xmlns="http://www.w3.org/2000/svg" xmlns:xlink="http://www.w3.org/1999/xlink">
<g id="graph0" class="graph" transform="scale(1 1) rotate(0) translate(4 136)">
<title>Protocol/serialmessage.h</title>
<polygon fill="white" stroke="none" points="-4,4 -4,-136 419,-136 419,4 -4,4"/>
<!-- Node1 -->
<g id="node1" class="node"><title>Node1</title>
<polygon fill="#bfbfbf" stroke="black" points="175.5,-112.5 175.5,-131.5 312.5,-131.5 312.5,-112.5 175.5,-112.5"/>
<text text-anchor="middle" x="244" y="-119.5" font-family="Helvetica,sans-Serif" font-size="10.00">Protocol/serialmessage.h</text>
</g>
<!-- Node2 -->
<g id="node2" class="node"><title>Node2</title>
<g id="a_node2"><a xlink:href="serialmessagemc_8h.html" target="_top" xlink:title="serialmessagemc.h">
<polygon fill="white" stroke="black" points="0,-56.5 0,-75.5 110,-75.5 110,-56.5 0,-56.5"/>
<text text-anchor="middle" x="55" y="-63.5" font-family="Helvetica,sans-Serif" font-size="10.00">serialmessagemc.h</text>
</a>
</g>
</g>
<!-- Node1&#45;&gt;Node2 -->
<g id="edge1" class="edge"><title>Node1&#45;&gt;Node2</title>
<path fill="none" stroke="midnightblue" d="M214.052,-112.444C181.842,-103.241 130.466,-88.5617 94.8578,-78.3879"/>
<polygon fill="midnightblue" stroke="midnightblue" points="95.3843,-74.8984 84.8075,-75.5164 93.4612,-81.629 95.3843,-74.8984"/>
</g>
<!-- Node4 -->
<g id="node4" class="node"><title>Node4</title>
<polygon fill="white" stroke="#bfbfbf" points="128.5,-56.5 128.5,-75.5 199.5,-75.5 199.5,-56.5 128.5,-56.5"/>
<text text-anchor="middle" x="164" y="-63.5" font-family="Helvetica,sans-Serif" font-size="10.00">QByteArray</text>
</g>
<!-- Node1&#45;&gt;Node4 -->
<g id="edge3" class="edge"><title>Node1&#45;&gt;Node4</title>
<path fill="none" stroke="midnightblue" d="M231.147,-112.324C218.784,-103.979 199.87,-91.2122 185.263,-81.3524"/>
<polygon fill="midnightblue" stroke="midnightblue" points="187.068,-78.3483 176.821,-75.6545 183.152,-84.1503 187.068,-78.3483"/>
</g>
<!-- Node5 -->
<g id="node5" class="node"><title>Node5</title>
<polygon fill="white" stroke="#bfbfbf" points="217.5,-56.5 217.5,-75.5 270.5,-75.5 270.5,-56.5 217.5,-56.5"/>
<text text-anchor="middle" x="244" y="-63.5" font-family="Helvetica,sans-Serif" font-size="10.00">QString</text>
</g>
<!-- Node1&#45;&gt;Node5 -->
<g id="edge4" class="edge"><title>Node1&#45;&gt;Node5</title>
<path fill="none" stroke="midnightblue" d="M244,-112.083C244,-105.006 244,-94.8611 244,-85.9865"/>
<polygon fill="midnightblue" stroke="midnightblue" points="247.5,-85.751 244,-75.7511 240.5,-85.7511 247.5,-85.751"/>
</g>
<!-- Node6 -->
<g id="node6" class="node"><title>Node6</title>
<polygon fill="white" stroke="#bfbfbf" points="289,-56.5 289,-75.5 333,-75.5 333,-56.5 289,-56.5"/>
<text text-anchor="middle" x="311" y="-63.5" font-family="Helvetica,sans-Serif" font-size="10.00">string</text>
</g>
<!-- Node1&#45;&gt;Node6 -->
<g id="edge5" class="edge"><title>Node1&#45;&gt;Node6</title>
<path fill="none" stroke="midnightblue" d="M254.765,-112.324C264.766,-104.263 279.887,-92.0765 291.93,-82.3695"/>
<polygon fill="midnightblue" stroke="midnightblue" points="294.45,-84.8343 300.039,-75.8339 290.057,-79.3841 294.45,-84.8343"/>
</g>
<!-- Node7 -->
<g id="node7" class="node"><title>Node7</title>
<polygon fill="white" stroke="#bfbfbf" points="351,-56.5 351,-75.5 415,-75.5 415,-56.5 351,-56.5"/>
<text text-anchor="middle" x="383" y="-63.5" font-family="Helvetica,sans-Serif" font-size="10.00">stdexcept</text>
</g>
<!-- Node1&#45;&gt;Node7 -->
<g id="edge6" class="edge"><title>Node1&#45;&gt;Node7</title>
<path fill="none" stroke="midnightblue" d="M266.025,-112.444C289.104,-103.478 325.562,-89.314 351.641,-79.1827"/>
<polygon fill="midnightblue" stroke="midnightblue" points="353.024,-82.4002 361.078,-75.5164 350.489,-75.8753 353.024,-82.4002"/>
</g>
<!-- Node3 -->
<g id="node3" class="node"><title>Node3</title>
<polygon fill="white" stroke="#bfbfbf" points="28.5,-0.5 28.5,-19.5 81.5,-19.5 81.5,-0.5 28.5,-0.5"/>
<text text-anchor="middle" x="55" y="-7.5" font-family="Helvetica,sans-Serif" font-size="10.00">stdint.h</text>
</g>
<!-- Node2&#45;&gt;Node3 -->
<g id="edge2" class="edge"><title>Node2&#45;&gt;Node3</title>
<path fill="none" stroke="midnightblue" d="M55,-56.083C55,-49.0059 55,-38.8611 55,-29.9865"/>
<polygon fill="midnightblue" stroke="midnightblue" points="58.5001,-29.751 55,-19.7511 51.5001,-29.7511 58.5001,-29.751"/>
</g>
</g>
</svg>
