<?xml version="1.0" encoding="UTF-8" standalone="no"?>
<!DOCTYPE svg PUBLIC "-//W3C//DTD SVG 1.1//EN"
 "http://www.w3.org/Graphics/SVG/1.1/DTD/svg11.dtd">
<!-- Generated by graphviz version 2.38.0 (20140413.2041)
 -->
<!-- Title: getHeader Pages: 1 -->
<svg width="249pt" height="47pt"
 viewBox="0.00 0.00 249.00 47.00" xmlns="http://www.w3.org/2000/svg" xmlns:xlink="http://www.w3.org/1999/xlink">
<g id="graph0" class="graph" transform="scale(1 1) rotate(0) translate(4 43)">
<title>getHeader</title>
<polygon fill="white" stroke="none" points="-4,4 -4,-43 245,-43 245,4 -4,4"/>
<!-- Node1 -->
<g id="node1" class="node"><title>Node1</title>
<polygon fill="#bfbfbf" stroke="black" points="0,-19.5 0,-38.5 68,-38.5 68,-19.5 0,-19.5"/>
<text text-anchor="middle" x="34" y="-26.5" font-family="Helvetica,sans-Serif" font-size="10.00">getHeader</text>
</g>
<!-- Node2 -->
<g id="node2" class="node"><title>Node2</title>
<g id="a_node2"><a xlink:href="example_8cpp.html#ae66f6b31b5ad750f1fe042a706a4e3d4" target="_top" xlink:title="Example usage. ">
<polygon fill="white" stroke="black" points="200,-19.5 200,-38.5 241,-38.5 241,-19.5 200,-19.5"/>
<text text-anchor="middle" x="220.5" y="-26.5" font-family="Helvetica,sans-Serif" font-size="10.00">main</text>
</a>
</g>
</g>
<!-- Node1&#45;&gt;Node2 -->
<g id="edge1" class="edge"><title>Node1&#45;&gt;Node2</title>
<path fill="none" stroke="midnightblue" d="M78.8009,-29C117.229,-29 171.319,-29 199.948,-29"/>
<polygon fill="midnightblue" stroke="midnightblue" points="78.4116,-25.5001 68.4116,-29 78.4115,-32.5001 78.4116,-25.5001"/>
</g>
<!-- Node3 -->
<g id="node3" class="node"><title>Node3</title>
<g id="a_node3"><a xlink:href="serialmessagemc_8h.html#a8824c3575b878c1aa30df964a9423b0a" target="_top" xlink:title="Проверяет соответствие контрольной суммы из пакета расчитанной контрольной сумме ">
<polygon fill="white" stroke="black" points="104,-0.5 104,-19.5 164,-19.5 164,-0.5 104,-0.5"/>
<text text-anchor="middle" x="134" y="-7.5" font-family="Helvetica,sans-Serif" font-size="10.00">checkCrc</text>
</a>
</g>
</g>
<!-- Node1&#45;&gt;Node3 -->
<g id="edge2" class="edge"><title>Node1&#45;&gt;Node3</title>
<path fill="none" stroke="midnightblue" d="M78.1692,-20.6305C86.8328,-18.9508 95.743,-17.2233 103.796,-15.662"/>
<polygon fill="midnightblue" stroke="midnightblue" points="77.3293,-17.228 68.1783,-22.5675 78.6617,-24.1001 77.3293,-17.228"/>
</g>
<!-- Node3&#45;&gt;Node2 -->
<g id="edge3" class="edge"><title>Node3&#45;&gt;Node2</title>
<path fill="none" stroke="midnightblue" d="M174.049,-18.7802C183.029,-20.7993 192.202,-22.862 199.935,-24.6007"/>
<polygon fill="midnightblue" stroke="midnightblue" points="174.604,-15.3178 164.08,-16.5387 173.069,-22.1473 174.604,-15.3178"/>
</g>
</g>
</svg>
