<?xml version="1.0" encoding="UTF-8" standalone="no"?>
<!DOCTYPE svg PUBLIC "-//W3C//DTD SVG 1.1//EN"
 "http://www.w3.org/Graphics/SVG/1.1/DTD/svg11.dtd">
<!-- Generated by graphviz version 2.38.0 (20140413.2041)
 -->
<!-- Title: getData Pages: 1 -->
<svg width="237pt" height="47pt"
 viewBox="0.00 0.00 237.00 47.00" xmlns="http://www.w3.org/2000/svg" xmlns:xlink="http://www.w3.org/1999/xlink">
<g id="graph0" class="graph" transform="scale(1 1) rotate(0) translate(4 43)">
<title>getData</title>
<polygon fill="white" stroke="none" points="-4,4 -4,-43 233,-43 233,4 -4,4"/>
<!-- Node1 -->
<g id="node1" class="node"><title>Node1</title>
<polygon fill="#bfbfbf" stroke="black" points="0,-19.5 0,-38.5 56,-38.5 56,-19.5 0,-19.5"/>
<text text-anchor="middle" x="28" y="-26.5" font-family="Helvetica,sans-Serif" font-size="10.00">getData</text>
</g>
<!-- Node2 -->
<g id="node2" class="node"><title>Node2</title>
<g id="a_node2"><a xlink:href="example_8cpp.html#ae66f6b31b5ad750f1fe042a706a4e3d4" target="_top" xlink:title="Example usage. ">
<polygon fill="white" stroke="black" points="188,-19.5 188,-38.5 229,-38.5 229,-19.5 188,-19.5"/>
<text text-anchor="middle" x="208.5" y="-26.5" font-family="Helvetica,sans-Serif" font-size="10.00">main</text>
</a>
</g>
</g>
<!-- Node1&#45;&gt;Node2 -->
<g id="edge1" class="edge"><title>Node1&#45;&gt;Node2</title>
<path fill="none" stroke="midnightblue" d="M66.5052,-29C103.543,-29 158.744,-29 187.871,-29"/>
<polygon fill="midnightblue" stroke="midnightblue" points="66.1103,-25.5001 56.1103,-29 66.1103,-32.5001 66.1103,-25.5001"/>
</g>
<!-- Node3 -->
<g id="node3" class="node"><title>Node3</title>
<g id="a_node3"><a xlink:href="serialmessagemc_8h.html#a8824c3575b878c1aa30df964a9423b0a" target="_top" xlink:title="Проверяет соответствие контрольной суммы из пакета расчитанной контрольной сумме ">
<polygon fill="white" stroke="black" points="92,-0.5 92,-19.5 152,-19.5 152,-0.5 92,-0.5"/>
<text text-anchor="middle" x="122" y="-7.5" font-family="Helvetica,sans-Serif" font-size="10.00">checkCrc</text>
</a>
</g>
</g>
<!-- Node1&#45;&gt;Node3 -->
<g id="edge2" class="edge"><title>Node1&#45;&gt;Node3</title>
<path fill="none" stroke="midnightblue" d="M65.9421,-21.3707C74.5593,-19.591 83.618,-17.7202 91.8432,-16.0215"/>
<polygon fill="midnightblue" stroke="midnightblue" points="65.1909,-17.9519 56.1054,-23.4021 66.6067,-24.8072 65.1909,-17.9519"/>
</g>
<!-- Node3&#45;&gt;Node2 -->
<g id="edge3" class="edge"><title>Node3&#45;&gt;Node2</title>
<path fill="none" stroke="midnightblue" d="M162.049,-18.7802C171.029,-20.7993 180.202,-22.862 187.935,-24.6007"/>
<polygon fill="midnightblue" stroke="midnightblue" points="162.604,-15.3178 152.08,-16.5387 161.069,-22.1473 162.604,-15.3178"/>
</g>
</g>
</svg>
