<?xml version="1.0" encoding="UTF-8" standalone="no"?>
<!DOCTYPE svg PUBLIC "-//W3C//DTD SVG 1.1//EN"
 "http://www.w3.org/Graphics/SVG/1.1/DTD/svg11.dtd">
<!-- Generated by graphviz version 2.38.0 (20140413.2041)
 -->
<!-- Title: Protocol/serialmessagemc.h Pages: 1 -->
<svg width="437pt" height="140pt"
 viewBox="0.00 0.00 437.00 140.00" xmlns="http://www.w3.org/2000/svg" xmlns:xlink="http://www.w3.org/1999/xlink">
<g id="graph0" class="graph" transform="scale(1 1) rotate(0) translate(4 136)">
<title>Protocol/serialmessagemc.h</title>
<polygon fill="white" stroke="none" points="-4,4 -4,-136 433,-136 433,4 -4,4"/>
<!-- Node1 -->
<g id="node1" class="node"><title>Node1</title>
<polygon fill="#bfbfbf" stroke="black" points="195,-112.5 195,-131.5 347,-131.5 347,-112.5 195,-112.5"/>
<text text-anchor="middle" x="271" y="-119.5" font-family="Helvetica,sans-Serif" font-size="10.00">Protocol/serialmessagemc.h</text>
</g>
<!-- Node2 -->
<g id="node2" class="node"><title>Node2</title>
<g id="a_node2"><a xlink:href="serialmessage_8h.html" target="_top" xlink:title="Protocol/serialmessage.h">
<polygon fill="white" stroke="black" points="121.5,-56.5 121.5,-75.5 258.5,-75.5 258.5,-56.5 121.5,-56.5"/>
<text text-anchor="middle" x="190" y="-63.5" font-family="Helvetica,sans-Serif" font-size="10.00">Protocol/serialmessage.h</text>
</a>
</g>
</g>
<!-- Node1&#45;&gt;Node2 -->
<g id="edge1" class="edge"><title>Node1&#45;&gt;Node2</title>
<path fill="none" stroke="midnightblue" d="M249.433,-106.622C234.636,-96.7574 215.488,-83.9919 202.982,-75.6545"/>
<polygon fill="midnightblue" stroke="midnightblue" points="247.724,-109.689 257.986,-112.324 251.607,-103.865 247.724,-109.689"/>
</g>
<!-- Node6 -->
<g id="node6" class="node"><title>Node6</title>
<g id="a_node6"><a xlink:href="serialmessagemc_8c.html" target="_top" xlink:title="Protocol/serialmessagemc.c">
<polygon fill="white" stroke="black" points="277,-56.5 277,-75.5 429,-75.5 429,-56.5 277,-56.5"/>
<text text-anchor="middle" x="353" y="-63.5" font-family="Helvetica,sans-Serif" font-size="10.00">Protocol/serialmessagemc.c</text>
</a>
</g>
</g>
<!-- Node1&#45;&gt;Node6 -->
<g id="edge5" class="edge"><title>Node1&#45;&gt;Node6</title>
<path fill="none" stroke="midnightblue" d="M292.833,-106.622C307.813,-96.7574 327.197,-83.9919 339.858,-75.6545"/>
<polygon fill="midnightblue" stroke="midnightblue" points="290.601,-103.901 284.175,-112.324 294.451,-109.747 290.601,-103.901"/>
</g>
<!-- Node3 -->
<g id="node3" class="node"><title>Node3</title>
<g id="a_node3"><a xlink:href="example_8cpp.html" target="_top" xlink:title="Protocol/example.cpp">
<polygon fill="white" stroke="black" points="0,-0.5 0,-19.5 120,-19.5 120,-0.5 0,-0.5"/>
<text text-anchor="middle" x="60" y="-7.5" font-family="Helvetica,sans-Serif" font-size="10.00">Protocol/example.cpp</text>
</a>
</g>
</g>
<!-- Node2&#45;&gt;Node3 -->
<g id="edge2" class="edge"><title>Node2&#45;&gt;Node3</title>
<path fill="none" stroke="midnightblue" d="M159.915,-52.503C135.543,-42.3795 101.86,-28.388 80.5025,-19.5164"/>
<polygon fill="midnightblue" stroke="midnightblue" points="158.823,-55.8397 169.401,-56.4435 161.509,-49.3752 158.823,-55.8397"/>
</g>
<!-- Node4 -->
<g id="node4" class="node"><title>Node4</title>
<g id="a_node4"><a xlink:href="main_8cpp_source.html" target="_top" xlink:title="Protocol/main.cpp">
<polygon fill="white" stroke="black" points="138.5,-0.5 138.5,-19.5 241.5,-19.5 241.5,-0.5 138.5,-0.5"/>
<text text-anchor="middle" x="190" y="-7.5" font-family="Helvetica,sans-Serif" font-size="10.00">Protocol/main.cpp</text>
</a>
</g>
</g>
<!-- Node2&#45;&gt;Node4 -->
<g id="edge3" class="edge"><title>Node2&#45;&gt;Node4</title>
<path fill="none" stroke="midnightblue" d="M190,-45.8045C190,-36.9102 190,-26.7798 190,-19.7511"/>
<polygon fill="midnightblue" stroke="midnightblue" points="186.5,-46.083 190,-56.083 193.5,-46.083 186.5,-46.083"/>
</g>
<!-- Node5 -->
<g id="node5" class="node"><title>Node5</title>
<g id="a_node5"><a xlink:href="serialmessage_8cpp.html" target="_top" xlink:title="Protocol/serialmessage.cpp">
<polygon fill="white" stroke="black" points="259.5,-0.5 259.5,-19.5 408.5,-19.5 408.5,-0.5 259.5,-0.5"/>
<text text-anchor="middle" x="334" y="-7.5" font-family="Helvetica,sans-Serif" font-size="10.00">Protocol/serialmessage.cpp</text>
</a>
</g>
</g>
<!-- Node2&#45;&gt;Node5 -->
<g id="edge4" class="edge"><title>Node2&#45;&gt;Node5</title>
<path fill="none" stroke="midnightblue" d="M222.251,-52.9058C249.324,-42.7536 287.317,-28.5063 311.29,-19.5164"/>
<polygon fill="midnightblue" stroke="midnightblue" points="220.952,-49.6551 212.817,-56.4435 223.409,-56.2094 220.952,-49.6551"/>
</g>
</g>
</svg>
